<svg width="144" height="80" viewBox="0 0 144 80" fill="none" xmlns="http://www.w3.org/2000/svg">
<path fill-rule="evenodd" clip-rule="evenodd" d="M25.4358 54.7435H10.3144L13.6615 39.7828C12.5776 39.4921 11.496 38.9999 10.542 38.1933L10.4709 38.1332L10.4025 38.0704C8.49947 36.3243 8 34.0205 8 32.1137C8 29.8451 8.79582 27.7697 10.0512 25.9517L10.0689 25.926L10.087 25.9006C11.3628 24.1074 13.0455 22.6086 15.0035 21.361L15.0301 21.3441L15.0568 21.3275C16.7264 20.295 18.5156 19.4936 20.4138 18.9284C22.3453 18.3361 24.3071 18.0164 26.2816 18.0164C29.6001 18.0164 32.8189 18.6764 35.4496 20.49C38.1365 22.3424 39.7022 25.0358 39.7491 28.2545C41.6073 27.3794 43.6182 26.9571 45.7116 26.9571C47.6762 26.9571 50.031 27.3475 51.9205 28.9146C52.2599 29.1876 52.5607 29.4781 52.8265 29.7818C53.3251 29.3968 53.854 29.0443 54.4145 28.7285C56.5083 27.5381 58.8219 26.9571 61.2516 26.9571C62.4376 26.9571 63.7434 27.0993 65.0052 27.5371C64.9815 27.2969 64.9696 27.0539 64.9696 26.8087C64.9696 24.8468 65.7316 23.0295 67.1915 21.617C68.6537 20.1762 70.5762 19.3891 72.6937 19.3891C74.7945 19.3891 76.7033 20.1638 78.1612 21.5831C79.4233 22.7674 80.1983 24.2632 80.4023 25.9183H90.8551L90.5665 27.2113C92.6778 27.5072 94.6769 28.4409 96.1665 30.2333C96.8226 29.6691 97.5354 29.164 98.3082 28.7285C100.414 27.5315 102.743 26.9571 105.184 26.9571C107.011 26.9571 109.175 27.2946 110.988 28.6015L111.413 27.3024L125.168 25.5258L125.373 30.4148C125.449 32.2406 125.538 33.8978 125.639 35.3885C125.719 36.572 125.815 37.8421 125.927 39.1994H136L129.372 46.5561C128.386 47.6502 127.296 48.6601 126.109 49.5863L126.103 49.5905L126.098 49.5947C125.086 50.3789 123.981 51.1191 122.794 51.8194C121.654 52.8412 120.323 53.5941 118.884 54.118L118.838 54.1346L118.792 54.1503C117.187 54.6983 115.517 54.9661 113.81 54.9661C111.684 54.9661 109.557 54.5056 107.71 53.349C105.564 54.4193 103.227 54.9661 100.759 54.9661C97.989 54.9661 95.1106 54.2677 92.9245 52.1783L92.9036 52.1584L92.8831 52.1382C92.8177 52.0741 92.7537 52.0095 92.6911 51.9442C90.4447 53.8715 87.6258 54.9289 84.379 54.9651L82.8307 61.909L66.9422 65.5294L69.2933 54.9396C67.5283 54.8155 65.7917 54.2478 64.3316 53.0799C62.0459 54.3276 59.5323 54.9661 56.8656 54.9661C54.3028 54.9661 51.6475 54.3684 49.5333 52.6246C47.044 54.1721 44.2606 54.9661 41.2867 54.9661C39.6313 54.9661 37.9372 54.7167 36.3753 54.0701L34.4292 54.5832C33.5636 54.8114 32.7081 54.9936 31.8661 55.1216C31.0451 55.2738 30.1945 55.3742 29.348 55.3742C28.186 55.3742 26.794 55.2036 25.4719 54.5807L25.4358 54.7435ZM24.7678 36.3058C24.9307 36.2824 25.073 36.2628 25.1948 36.2468C25.3199 36.2303 25.4234 36.2178 25.5053 36.2091C25.5972 36.1994 25.6619 36.1945 25.6994 36.1945C25.8288 36.1698 25.9452 36.1574 26.0487 36.1574C26.825 36.1574 27.4072 36.3676 27.7954 36.7881C27.8413 36.8378 27.8845 36.8905 27.925 36.9461C28.2059 37.332 28.356 37.8595 28.3754 38.5285C28.3769 38.5783 28.3776 38.6288 28.3776 38.6801C28.3776 38.6829 28.3776 38.6857 28.3776 38.6886C28.3767 39.2062 28.2991 39.8217 28.1447 40.535C28.0153 41.2274 27.7307 42.3404 27.2908 43.8738C26.9026 45.2835 26.6439 46.2975 26.5145 46.9158C26.3851 47.5094 26.3204 48.0164 26.3204 48.4368C26.3204 48.9195 26.4014 49.3287 26.5634 49.6647C26.6836 49.9141 26.8484 50.1231 27.0579 50.2917C27.1991 50.4065 27.3587 50.5056 27.5365 50.589C27.9641 50.7895 28.4974 50.8996 29.1366 50.9192C29.2058 50.9213 29.2763 50.9224 29.348 50.9224C29.3645 50.9224 29.381 50.9223 29.3977 50.9222C29.8779 50.9182 30.4306 50.8564 31.0558 50.7369C31.4012 50.6861 31.7569 50.6223 32.1228 50.5454C32.4695 50.4726 32.8255 50.388 33.1906 50.2917C32.7248 50.1186 32.3496 49.8095 32.065 49.3643C31.8062 48.9191 31.6768 48.4121 31.6768 47.8433C31.6768 47.4476 31.7286 46.9776 31.8321 46.4335C31.8556 46.3101 31.8857 46.1683 31.9225 46.008C32.0067 45.6408 32.126 45.1767 32.2801 44.6157C32.3553 44.342 32.4389 44.0452 32.5307 43.7254C32.9706 42.2415 33.2553 41.1409 33.3847 40.4237C33.4426 40.0914 33.4876 39.7764 33.5196 39.4788C33.559 39.112 33.5787 38.7715 33.5787 38.4575C33.5787 38.4385 33.5787 38.4197 33.5785 38.4009C33.5704 37.4135 33.3506 36.6286 32.9189 36.0461C32.8372 35.9313 32.7475 35.8229 32.6498 35.7209C32.6406 35.7113 32.6313 35.7017 32.6219 35.6922C32.5446 35.6136 32.4624 35.539 32.3753 35.4682C31.9827 35.1491 31.4912 34.9089 30.9005 34.7477C31.1623 34.5996 31.4131 34.442 31.6528 34.275C31.6685 34.264 31.6841 34.253 31.6997 34.242C31.7092 34.2353 31.7187 34.2286 31.7281 34.2219C32.6156 33.5899 33.3489 32.8254 33.9281 31.9282C34.0613 31.7286 34.1832 31.5287 34.2936 31.3284C34.8262 30.362 35.0925 29.3872 35.0925 28.4039C35.0925 28.2912 35.0893 28.1799 35.083 28.07C34.9895 26.443 34.2034 25.1199 32.7248 24.1005C32.5959 24.0116 32.4631 23.9263 32.3265 23.8447C32.108 23.7141 31.8798 23.5927 31.6418 23.4807C30.3135 22.8553 28.682 22.5196 26.7474 22.4737C26.6998 22.4725 26.652 22.4716 26.604 22.4708C26.4975 22.4691 26.39 22.4682 26.2816 22.4682C24.8325 22.4682 23.3447 22.7032 21.8179 23.1731C21.5069 23.2653 21.1997 23.3656 20.8964 23.4738C19.751 23.8824 18.6611 24.4048 17.6267 25.0407C17.6219 25.0437 17.6171 25.0466 17.6123 25.0495C17.604 25.0547 17.5956 25.0599 17.5872 25.0651C17.3295 25.2293 17.081 25.3969 16.8418 25.5679C15.6401 26.4272 14.6724 27.3726 13.9386 28.4039C13.0847 29.6405 12.6577 30.8771 12.6577 32.1137C12.6577 32.5044 12.69 32.863 12.7546 33.1895C12.8871 33.8595 13.1556 34.3944 13.56 34.7941C13.5823 34.8161 13.605 34.8377 13.6281 34.859C13.664 34.8893 13.701 34.9188 13.739 34.9475C13.9909 35.1375 14.2911 35.292 14.6396 35.4112C14.9351 35.5122 15.2653 35.5878 15.6302 35.638C15.7752 35.6579 15.9257 35.6739 16.0816 35.6858C16.0952 35.6868 16.1088 35.6878 16.1224 35.6888C16.3058 35.7019 16.4967 35.7095 16.6951 35.7116C16.7334 35.712 16.772 35.7122 16.8109 35.7122C16.8109 35.6875 16.7979 35.6627 16.7721 35.638C16.7721 35.5885 16.7462 35.5144 16.6944 35.4154C16.5392 35.0939 16.4227 34.76 16.3451 34.4138C16.2934 34.0675 16.2675 33.6595 16.2675 33.1895C16.2675 32.8468 16.2819 32.5129 16.3109 32.188C16.3131 32.1632 16.3154 32.1384 16.3177 32.1137C16.3236 32.0529 16.3299 31.9925 16.3368 31.9323C16.3605 31.725 16.3902 31.5213 16.426 31.3214C16.4305 31.2966 16.435 31.2718 16.4396 31.2471C16.5074 30.8859 16.5951 30.537 16.7027 30.2004C16.7074 30.1857 16.7122 30.1711 16.7169 30.1565C17.1306 28.888 17.8298 27.7952 18.8146 26.8781C18.8221 26.8711 18.8296 26.8641 18.8372 26.8571C18.9229 26.7778 19.0109 26.6999 19.1009 26.6232C19.224 26.5168 19.3499 26.4139 19.4786 26.3145C19.9922 25.9177 20.5504 25.5761 21.1531 25.2897C21.5343 25.1085 21.9334 24.9495 22.3503 24.8125C22.3563 24.8105 22.3623 24.8085 22.3683 24.8066C23.5337 24.4259 24.8381 24.2172 26.2816 24.1806C26.4353 24.1767 26.5906 24.1747 26.7474 24.1747C26.7801 24.1747 26.8127 24.1749 26.845 24.1753C28.1438 24.1918 29.1592 24.5378 29.8914 25.2135C30.3171 25.6063 30.622 26.0828 30.8062 26.6428C30.8138 26.6657 30.8211 26.6888 30.8282 26.712C30.9541 27.1211 31.017 27.5738 31.017 28.07C31.017 28.1819 31.0142 28.2932 31.0086 28.4039C30.9817 28.9417 30.8892 29.4663 30.7312 29.9779C30.7255 29.9962 30.7198 30.0145 30.714 30.0327C30.4542 30.8481 30.0274 31.63 29.4335 32.3785C29.4188 32.3971 29.4039 32.4156 29.389 32.4341C29.3754 32.451 29.3617 32.4679 29.348 32.4847C28.3968 33.6751 27.2971 34.3446 26.0487 34.4933C25.9335 34.507 25.8171 34.5163 25.6994 34.5211C25.6351 34.5237 25.5704 34.5251 25.5053 34.5251H25.1948L27.0967 25.9554L21.3522 26.6974L16.0734 50.2917H21.6627L24.7678 36.3058ZM37.8675 35.7842C37.8427 35.8218 37.818 35.8596 37.7934 35.8977C37.3014 36.6814 36.8718 37.5347 36.5046 38.4575C36.2923 38.9907 36.1009 39.5472 35.9303 40.1269C35.8638 40.3529 35.8021 40.5772 35.7451 40.7997C35.744 40.8038 35.7429 40.808 35.7419 40.8121C35.4188 42.0766 35.2491 43.284 35.233 44.4344C35.2328 44.4419 35.2328 44.4495 35.2327 44.4571C35.232 44.5101 35.2317 44.563 35.2317 44.6157C35.2317 45.2359 35.2825 45.8075 35.3842 46.3305C35.3893 46.3568 35.3945 46.383 35.3999 46.409C35.4484 46.6441 35.5073 46.8692 35.5767 47.0843C35.5975 47.1488 35.6192 47.2123 35.6419 47.275C35.6612 47.3284 35.6812 47.3811 35.7019 47.4331C35.7581 47.5747 35.8193 47.7114 35.8856 47.8433C36.113 48.2956 36.3996 48.6913 36.7454 49.0304C37.2349 49.4982 37.8315 49.8555 38.5351 50.1021C39.3193 50.3769 40.2365 50.5143 41.2867 50.5143C42.1428 50.5143 42.9709 50.4215 43.7709 50.2358C44.1717 50.1428 44.5654 50.0265 44.9521 49.8868C45.6229 49.6447 46.2724 49.3323 46.9008 48.9499C46.9574 48.9155 47.0138 48.8805 47.0701 48.8449C47.3813 48.6437 47.6884 48.424 47.9915 48.1856C47.9958 48.1822 48.0002 48.1788 48.0045 48.1754C48.9203 47.4534 49.7992 46.5618 50.641 45.5005C50.7042 45.4209 50.7671 45.3404 50.8298 45.2589C50.8995 46.3873 51.1579 47.3353 51.6051 48.103C51.7241 48.3073 51.8566 48.4988 52.0023 48.6776C52.1033 48.8013 52.2106 48.9189 52.3243 49.0304C52.5614 49.257 52.8237 49.4577 53.111 49.6324C53.4169 49.8184 53.7512 49.9749 54.1139 50.1021C54.8981 50.3769 55.8154 50.5143 56.8656 50.5143C57.7217 50.5143 58.5497 50.4215 59.3497 50.2358C60.1817 50.0427 60.9832 49.7492 61.7545 49.3553C62.0573 49.2007 62.3555 49.0305 62.6489 48.8449C62.9601 48.6437 63.2673 48.424 63.5703 48.1856C63.5747 48.1822 63.579 48.1788 63.5834 48.1754C64.3327 47.5847 65.0572 46.8804 65.757 46.0626C65.806 46.0053 65.8548 45.9475 65.9036 45.8892C65.902 45.9481 65.9012 46.0059 65.9012 46.0626C65.9012 46.826 66.0074 47.4987 66.2199 48.0808C66.2226 48.0882 66.2253 48.0956 66.228 48.103C66.3881 48.5344 66.6071 48.9156 66.8848 49.2466C66.9183 49.2866 66.9527 49.3258 66.988 49.3643C67.3266 49.7103 67.7206 49.9782 68.17 50.1681C68.5754 50.3394 69.026 50.4471 69.5216 50.4913C69.6937 50.5067 69.8713 50.5143 70.0543 50.5143C70.1287 50.5143 70.2028 50.5133 70.2764 50.5114C71.2758 50.4848 72.2109 50.2779 73.0818 49.8908C73.7105 49.6113 74.3056 49.238 74.8673 48.7707C75.1101 48.5688 75.3442 48.3504 75.5698 48.1156L73.0276 59.5662L78.8885 58.2307L80.9069 49.1788C81.1657 49.624 81.5668 49.9579 82.1102 50.1804C82.3789 50.2855 82.6765 50.3658 83.0029 50.4213C83.3679 50.4833 83.769 50.5143 84.2061 50.5143C84.6117 50.5143 85.0053 50.4914 85.3868 50.4454C86.9455 50.2577 88.3037 49.6867 89.4613 48.7322C89.7998 48.4531 90.1213 48.1412 90.4255 47.7964C90.6947 47.4915 90.9504 47.1608 91.1927 46.8045C91.6623 46.1245 92.0674 45.3949 92.4078 44.6157C93.0527 43.1399 93.466 41.4864 93.6476 39.655C93.7189 38.9369 93.7545 38.1915 93.7545 37.4187C93.7545 35.9871 93.5336 34.8143 93.0918 33.9003C92.9383 33.5826 92.7581 33.2963 92.5512 33.0412C92.2828 32.7101 91.9723 32.4344 91.6198 32.2141C91.0525 31.8596 90.3762 31.6486 89.5911 31.581C89.4065 31.5652 89.2158 31.5572 89.0191 31.5572C88.1393 31.5572 87.3242 31.6933 86.5738 31.9653C86.5479 31.9747 86.522 31.9843 86.4962 31.994C86.0083 32.1773 85.5426 32.4133 85.0989 32.7022C84.8868 32.8402 84.6798 32.9903 84.4778 33.1524L85.0989 30.3701H79.5096L76.5324 43.7797C76.3956 44.1785 76.2291 44.5468 76.0328 44.8845C75.9692 44.9941 75.9024 45.1004 75.8325 45.2035C75.8242 45.2157 75.8159 45.2279 75.8075 45.24C75.7516 45.321 75.6936 45.4001 75.6338 45.4771C75.6173 45.4983 75.6006 45.5194 75.5838 45.5403L75.5815 45.5432C75.444 45.7142 75.2965 45.875 75.139 46.0255C74.5204 46.5931 73.8662 46.8893 73.1766 46.9141C73.1451 46.9152 73.1135 46.9158 73.0818 46.9158C72.5126 46.9158 72.0985 46.8169 71.8398 46.619C71.678 46.4645 71.5725 46.2443 71.5231 45.9585C71.5065 45.8626 71.4962 45.7594 71.4923 45.6488C71.4911 45.6143 71.4905 45.5791 71.4905 45.5432C71.4905 45.3453 71.5034 45.1598 71.5293 44.9867C71.5551 44.7889 71.594 44.5786 71.6457 44.356L74.4404 31.7427H68.8511L66.2117 43.6512L66.2091 43.6629C65.7981 44.1091 65.401 44.5121 65.0176 44.8719C65.0155 44.8739 65.0134 44.8759 65.0112 44.8779C64.5117 45.3462 64.0358 45.7411 63.5832 46.0626C63.2738 46.2824 62.9753 46.4679 62.6878 46.619C62.2908 46.8233 61.8777 46.9875 61.4487 47.1114C61.4413 47.1135 61.4339 47.1157 61.4265 47.1178C61.3826 47.1303 61.3385 47.1424 61.2942 47.1541C60.6784 47.3168 60.0303 47.3981 59.3497 47.3981C58.2888 47.3981 57.5513 47.1631 57.1373 46.6932C57.0326 46.5665 56.942 46.4155 56.8656 46.2402C56.8408 46.1834 56.8176 46.1241 56.7958 46.0622C56.689 45.7593 56.6178 45.3954 56.5821 44.9704C56.5641 44.7564 56.5551 44.5269 56.5551 44.2819C56.5551 42.7087 56.8206 41.0752 57.3515 39.3813C57.3705 39.3207 57.3898 39.2601 57.4095 39.1994C57.6267 38.5287 57.8853 37.8486 58.1853 37.159C58.1872 37.1547 58.189 37.1503 58.1909 37.146C58.3095 36.8711 58.4285 36.6113 58.5477 36.3665C58.5592 36.343 58.5707 36.3195 58.5821 36.2962C58.6382 36.1827 58.6942 36.0724 58.7504 35.9654C58.7648 35.938 58.7792 35.9108 58.7936 35.8839C58.7999 35.872 58.8062 35.8602 58.8125 35.8485C58.8167 35.8406 58.821 35.8328 58.8252 35.825C58.927 35.6365 59.0291 35.4589 59.1315 35.2921C59.2171 35.1525 59.303 35.0204 59.389 34.8961C60.0019 34.0095 60.6228 33.5105 61.2516 33.3991C61.342 33.383 61.4326 33.375 61.5233 33.375C61.7174 33.375 61.8855 33.4141 62.0276 33.4922C62.1507 33.5598 62.2543 33.6568 62.3384 33.7831C62.4551 33.9424 62.5342 34.1531 62.5757 34.415C62.5798 34.4409 62.5836 34.4672 62.5869 34.494C62.5997 34.5961 62.6072 34.7054 62.6094 34.8219C62.6099 34.8463 62.6101 34.871 62.6101 34.8961C62.6101 34.9705 62.608 35.0463 62.6039 35.1234C62.6034 35.133 62.6028 35.1425 62.6022 35.1521C62.5873 35.3995 62.5511 35.6604 62.4937 35.9348C62.4161 36.3058 62.2996 36.6891 62.1444 37.0848C62.3738 37.231 62.6032 37.3412 62.8327 37.4154C62.8361 37.4165 62.8396 37.4176 62.843 37.4187C62.8981 37.4363 62.9525 37.4517 63.0061 37.4651C63.0636 37.4795 63.1202 37.4915 63.176 37.5011C63.2429 37.5126 63.3087 37.5206 63.3732 37.5253C63.417 37.5284 63.4602 37.53 63.5029 37.53C64.1239 37.53 64.6155 37.2951 64.9778 36.8251C65.0674 36.711 65.1466 36.5877 65.2155 36.4551C65.4364 36.0301 65.551 35.5104 65.5595 34.8961C65.5599 34.8715 65.56 34.8467 65.56 34.8219C65.56 33.7769 65.2406 32.9717 64.6019 32.4064C64.5723 32.3803 64.5421 32.3546 64.5111 32.3295C64.4986 32.3193 64.486 32.3092 64.4732 32.2992C64.3386 32.1889 64.1919 32.0889 64.0332 31.9991C63.3928 31.6368 62.5562 31.4413 61.5233 31.4126C61.4342 31.4101 61.3437 31.4088 61.2516 31.4088C59.6214 31.4088 58.1335 31.7922 56.788 32.5589C55.9988 33.0026 55.2744 33.5789 54.6148 34.2879C54.4687 34.4449 54.3258 34.6084 54.1861 34.7784C54.1343 34.8415 54.0829 34.9054 54.032 34.9702C53.8033 35.2614 53.5834 35.5705 53.3723 35.8977C52.7303 36.8874 52.196 37.988 51.7695 39.1994C51.6631 39.5017 51.5634 39.8108 51.4704 40.1269C51.1922 41.1277 51.002 42.0939 50.8998 43.0255C50.8903 43.1118 50.8816 43.1977 50.8736 43.2834C50.8621 43.4066 50.8523 43.5292 50.8439 43.6512H50.641C50.3212 43.9989 50.0097 44.3204 49.7065 44.6157C48.759 45.539 47.8931 46.2068 47.1089 46.619C46.862 46.7461 46.6089 46.8576 46.3496 46.9536C46.192 47.012 46.0321 47.0646 45.8699 47.1114C45.8625 47.1135 45.8551 47.1157 45.8477 47.1178C45.1927 47.3047 44.5004 47.3981 43.7709 47.3981C43.1633 47.3981 42.6618 47.321 42.2664 47.1669C41.9713 47.0519 41.7354 46.894 41.5584 46.6932C41.4538 46.5665 41.3632 46.4155 41.2867 46.2402C41.2701 46.202 41.2541 46.1628 41.2389 46.1223C41.2314 46.1026 41.2241 46.0825 41.2169 46.0622C41.1574 45.8934 41.109 45.7056 41.0715 45.4989C41.008 45.1479 40.9762 44.7422 40.9762 44.2819V43.7625C41.0021 43.5399 41.028 43.2184 41.0538 42.7979C41.2007 42.7905 41.3463 42.7805 41.4907 42.768C42.8413 42.6509 44.0846 42.3131 45.2207 41.7544C45.5102 41.612 45.7928 41.4553 46.0684 41.2842C46.2139 41.1939 46.3575 41.0995 46.4991 41.0012C46.6977 40.8634 46.8925 40.7176 47.0835 40.564L47.086 40.562C47.1721 40.4927 47.2573 40.4219 47.3418 40.3495C47.7167 40.0227 48.0517 39.6842 48.3468 39.3339C48.3575 39.3212 48.3681 39.3085 48.3787 39.2958C49.447 38.0116 49.9812 36.5698 49.9812 34.9702C49.9812 34.9454 49.981 34.9207 49.9807 34.8961C49.9758 34.5033 49.9321 34.1451 49.8494 33.8213C49.8483 33.8169 49.8472 33.8125 49.846 33.8081C49.7915 33.5977 49.7204 33.4021 49.6328 33.221C49.4855 32.9166 49.2915 32.6536 49.0507 32.4321C49.0006 32.386 48.9485 32.3417 48.8944 32.2992C48.2475 31.7496 47.2901 31.4545 46.0221 31.4137C45.9206 31.4105 45.8171 31.4088 45.7116 31.4088C44.0555 31.4088 42.5547 31.7922 41.2091 32.5589C40.6762 32.8585 40.1728 33.2186 39.699 33.6392C39.6933 33.6443 39.6875 33.6494 39.6817 33.6546C39.2754 34.017 38.8909 34.4242 38.5281 34.8759C38.2992 35.1609 38.079 35.4636 37.8675 35.7842ZM42.1722 38.1422C41.8498 39.0259 41.5805 39.9842 41.3644 41.0172C42.8652 40.9183 44.1719 40.2629 45.2846 39.051C45.4217 38.9022 45.5505 38.7512 45.671 38.598C45.6751 38.5928 45.6792 38.5876 45.6833 38.5824C45.8772 38.3346 46.0496 38.0812 46.2005 37.8222C46.2924 37.6644 46.3763 37.5045 46.4522 37.3426C46.4548 37.337 46.4574 37.3314 46.46 37.3257C46.8047 36.5842 46.982 35.799 46.992 34.9702C46.9923 34.9456 46.9925 34.9208 46.9925 34.8961C46.9925 34.7652 46.9875 34.643 46.9777 34.5294C46.9731 34.4771 46.9676 34.4267 46.961 34.3781C46.9248 34.1131 46.8577 33.9024 46.7596 33.746C46.6043 33.4987 46.3585 33.375 46.0221 33.375C45.9188 33.375 45.8153 33.3854 45.7116 33.4062C45.0915 33.5307 44.465 34.0273 43.8322 34.8961C43.6698 35.1189 43.5071 35.3662 43.3439 35.638C43.3241 35.6714 43.3044 35.7049 43.2849 35.7386M42.1722 38.1422C42.2874 37.8262 42.4095 37.5197 42.5384 37.2227ZM42.5384 37.2227C42.589 37.1062 42.6406 36.9911 42.6933 36.8775C42.6939 36.8761 42.6946 36.8746 42.6953 36.8732C42.7824 36.6855 42.8723 36.5018 42.9652 36.3221C43.0502 36.1575 43.1377 35.9963 43.2275 35.8384C43.2318 35.8308 43.2361 35.8232 43.2405 35.8157C43.2552 35.7899 43.27 35.7642 43.2849 35.7386M69.6642 27.291C69.7606 27.9012 70.0459 28.4329 70.5201 28.8862C71.1153 29.455 71.8398 29.7394 72.6937 29.7394C73.3531 29.7394 73.9353 29.5698 74.4404 29.2307C74.5894 29.1306 74.7317 29.0158 74.8673 28.8862C74.966 28.7958 75.0569 28.7022 75.1399 28.6056C75.4731 28.2177 75.6799 27.7795 75.7604 27.291C75.786 27.1353 75.7989 26.9745 75.7989 26.8087C75.7989 26.5482 75.7672 26.3003 75.7039 26.0649C75.569 25.563 75.2901 25.1185 74.8673 24.7312C74.2722 24.1376 73.5476 23.8408 72.6937 23.8408C71.8398 23.8408 71.1153 24.1376 70.5201 24.7312C69.9249 25.3 69.6274 25.9925 69.6274 26.8087C69.6274 26.9745 69.6396 27.1353 69.6642 27.291ZM61.7058 41.7405C61.6464 41.7246 61.5877 41.708 61.5298 41.691C61.5091 41.7791 61.4895 41.8667 61.4709 41.9536C61.5458 41.8874 61.6241 41.8164 61.7058 41.7405ZM81.5279 46.4335C81.5994 46.6214 81.7079 46.7798 81.8534 46.9087C81.9186 46.9664 81.9913 47.0183 82.0713 47.0642C82.3301 47.2126 82.6406 47.2868 83.0029 47.2868C83.1222 47.2868 83.2397 47.2814 83.3556 47.2707C83.3763 47.2688 83.397 47.2667 83.4177 47.2644C83.6902 47.2345 83.953 47.1746 84.2061 47.0846C84.2698 47.062 84.3329 47.0375 84.3954 47.011C84.5432 46.9485 84.6875 46.8753 84.8285 46.7915C84.8332 46.7887 84.8379 46.7859 84.8426 46.7831C85.3189 46.4969 85.7559 46.0889 86.1535 45.5589C86.3255 45.3295 86.4902 45.0773 86.6476 44.8023C86.7421 44.637 86.834 44.4636 86.9231 44.2819C87.9323 42.2786 88.4369 39.9538 88.4369 37.3074C88.4369 36.8517 88.4056 36.446 88.3428 36.0902C88.266 35.6543 88.1421 35.2933 87.9711 35.0073C87.8709 34.8396 87.7517 34.699 87.6136 34.5854C87.3242 34.3473 86.9517 34.2283 86.4962 34.2283C86.2037 34.2283 85.9061 34.2966 85.6034 34.4331C85.4367 34.5083 85.2686 34.6041 85.0989 34.7207C85.0859 34.7295 85.073 34.7385 85.06 34.7477C85.0232 34.7718 84.9868 34.7965 84.9508 34.8219C84.5068 35.1347 84.1292 35.5428 83.818 36.0461L81.5279 46.4335ZM95.6595 48.3591C95.8244 48.6032 96.0105 48.827 96.218 49.0304C96.7075 49.4982 97.304 49.8555 98.0076 50.102C98.7918 50.3769 99.7091 50.5143 100.759 50.5143C101.615 50.5143 102.443 50.4215 103.243 50.2358C103.66 50.1391 104.069 50.0171 104.471 49.87C105.164 49.6159 105.835 49.2868 106.483 48.8826C106.503 48.8701 106.523 48.8575 106.543 48.8449C106.748 48.7123 106.951 48.5717 107.152 48.423C107.257 48.3461 107.361 48.2669 107.464 48.1856C107.468 48.1822 107.473 48.1788 107.477 48.1754C107.793 47.9262 108.105 47.6568 108.412 47.3672C108.525 47.6783 108.673 47.9737 108.857 48.2535C108.889 48.3019 108.922 48.3498 108.956 48.3973C108.984 48.4366 109.013 48.4757 109.042 48.5144C109.07 48.5499 109.097 48.5851 109.126 48.62C109.284 48.8147 109.461 49.0009 109.657 49.1788C109.848 49.3434 110.052 49.4928 110.267 49.627C110.43 49.7286 110.6 49.8215 110.777 49.9057C111.131 50.0745 111.513 50.2082 111.923 50.3068C112.131 50.3569 112.346 50.3979 112.568 50.4298C112.96 50.4862 113.374 50.5143 113.81 50.5143C114.328 50.5143 114.836 50.4792 115.334 50.409C115.981 50.3178 116.612 50.1674 117.226 49.9579C117.559 49.8366 117.873 49.7003 118.17 49.5489C118.505 49.378 118.816 49.1878 119.105 48.9785C119.394 48.7679 119.661 48.5379 119.904 48.2884C120.745 47.8097 121.524 47.3192 122.241 46.8169C122.561 46.5925 122.869 46.3658 123.164 46.1368C123.234 46.0825 123.303 46.0279 123.372 45.973C123.491 45.8781 123.608 45.7823 123.724 45.6856C123.889 45.5476 124.052 45.4077 124.212 45.2659C124.248 45.2344 124.283 45.2028 124.319 45.1711C124.552 44.9616 124.779 44.748 125.001 44.5303C125.146 44.3874 125.289 44.2427 125.429 44.0964C125.569 43.9497 125.707 43.8013 125.843 43.6512H124.212C124.035 43.7966 123.842 43.945 123.633 44.0964C123.416 44.2539 123.182 44.4147 122.931 44.5786C122.734 44.7078 122.534 44.835 122.333 44.9602C122.296 44.9827 122.26 45.0052 122.223 45.0276L122.22 45.0299C121.956 45.192 121.689 45.3508 121.418 45.5061C121.469 45.3082 121.508 45.098 121.534 44.8754C121.555 44.6975 121.567 44.4958 121.571 44.2705C121.571 44.2667 121.572 44.263 121.572 44.2592C121.572 44.2062 121.573 44.152 121.573 44.0964C121.573 43.7007 121.56 43.2926 121.534 42.8721C121.529 42.7932 121.523 42.7033 121.517 42.6025C121.5 42.3484 121.477 42.0248 121.449 41.6319C121.428 41.3512 121.405 41.035 121.379 40.6833C121.373 40.6125 121.367 40.5419 121.361 40.4714C121.351 40.3627 121.342 40.2544 121.333 40.1466C121.198 38.5459 121.084 37.0554 120.991 35.6751C120.977 35.4713 120.963 35.2646 120.95 35.0551C120.863 33.6885 120.786 32.201 120.719 30.5927L114.974 31.3346C114.67 32.2666 114.365 33.149 114.06 33.9818C114.015 34.1058 113.97 34.2286 113.924 34.3504C113.856 34.5329 113.788 34.713 113.72 34.8906C113.71 34.9172 113.7 34.9438 113.69 34.9702C113.626 35.1359 113.562 35.2994 113.499 35.4607C113.214 36.1813 112.93 36.8587 112.646 37.4929C112.582 37.6367 112.519 37.7797 112.455 37.922C112.452 37.9274 112.45 37.9328 112.447 37.9381C112.369 38.1115 112.29 38.2837 112.211 38.455C112.095 38.7054 111.977 38.9535 111.858 39.1994C111.718 39.4872 111.577 39.772 111.433 40.0537C111.298 40.3201 111.16 40.5838 111.021 40.8447C110.987 40.9081 110.953 40.9713 110.919 41.0344C110.813 41.2302 110.707 41.4246 110.599 41.6173C110.468 41.8524 110.335 42.0852 110.2 42.3157C110.171 42.329 110.142 42.3428 110.114 42.357C109.963 42.4318 109.819 42.5189 109.682 42.6183C109.546 42.7168 109.417 42.8273 109.295 42.95C109.293 42.9524 109.29 42.9548 109.288 42.9572C109.283 42.9617 109.279 42.9662 109.275 42.9707C109.082 43.1672 108.907 43.394 108.748 43.6512C108.74 43.6635 108.733 43.6758 108.725 43.6883C108.594 43.8978 108.485 44.1159 108.398 44.3425C108.396 44.3477 108.394 44.3528 108.392 44.3579C108.322 44.541 108.268 44.7296 108.227 44.9238C108.223 44.9447 108.219 44.9657 108.215 44.9867C108.18 45.1671 108.158 45.3523 108.149 45.5421L108.149 45.5458C108.056 45.6219 107.965 45.6952 107.875 45.7658C107.421 46.1197 106.99 46.4041 106.581 46.619C106.312 46.7578 106.035 46.878 105.75 46.9797C105.616 47.0278 105.48 47.0717 105.342 47.1114C105.335 47.1135 105.328 47.1157 105.32 47.1178C104.781 47.2716 104.217 47.3621 103.627 47.3893C103.5 47.3952 103.372 47.3981 103.243 47.3981C102.636 47.3981 102.134 47.321 101.739 47.1669C101.444 47.0519 101.208 46.894 101.031 46.6932C100.926 46.5665 100.836 46.4155 100.759 46.2402C100.743 46.202 100.727 46.1628 100.711 46.1224C100.704 46.1026 100.697 46.0825 100.689 46.0622C100.63 45.8934 100.582 45.7056 100.544 45.4989C100.481 45.1479 100.449 44.7422 100.449 44.2819V43.7625C100.475 43.5399 100.501 43.2184 100.526 42.7979C100.673 42.7905 100.819 42.7805 100.963 42.768C102.221 42.6589 103.386 42.3583 104.458 41.866C104.537 41.8298 104.615 41.7926 104.693 41.7544C104.785 41.7094 104.876 41.663 104.966 41.6151C104.991 41.6019 105.015 41.5885 105.04 41.575C105.21 41.4832 105.377 41.3862 105.541 41.2842C105.891 41.0672 106.229 40.8272 106.556 40.564L106.559 40.562C106.605 40.5248 106.651 40.4872 106.696 40.4491C106.736 40.4162 106.775 40.383 106.814 40.3495C107.437 39.8065 107.95 39.231 108.353 38.623C108.86 37.8565 109.192 37.0384 109.349 36.1685C109.35 36.1604 109.351 36.1523 109.353 36.1442C109.42 35.7628 109.454 35.3715 109.454 34.9702C109.454 34.9454 109.454 34.9207 109.453 34.8961C109.447 34.4094 109.381 33.9757 109.256 33.5951C109.102 33.1274 108.858 32.7398 108.523 32.4321C108.473 32.386 108.421 32.3417 108.367 32.2992C107.72 31.7496 106.763 31.4545 105.495 31.4137C105.393 31.4105 105.29 31.4088 105.184 31.4088C103.528 31.4088 102.027 31.7922 100.682 32.5589C100.149 32.8585 99.6454 33.2186 99.1716 33.6392C99.1658 33.6443 99.16 33.6494 99.1543 33.6546C98.811 33.9608 98.4833 34.2989 98.1711 34.6688C98.1137 34.7368 98.0569 34.8058 98.0007 34.8759C97.7449 35.1943 97.5 35.5349 97.266 35.8977C96.9641 36.3785 96.6858 36.8855 96.4309 37.4187C96.0302 38.2568 95.6876 39.1595 95.4029 40.1269C94.9371 41.7097 94.7042 43.206 94.7042 44.6157C94.7042 46.1679 95.0227 47.4157 95.6595 48.3591ZM101.645 38.1422C101.322 39.0259 101.053 39.9842 100.837 41.0172C102.338 40.9183 103.644 40.2629 104.757 39.051C104.894 38.9022 105.023 38.7512 105.144 38.598C105.148 38.5928 105.152 38.5876 105.156 38.5824C105.35 38.3346 105.522 38.0812 105.673 37.8222C105.765 37.6644 105.849 37.5045 105.925 37.3426C105.927 37.337 105.93 37.3314 105.933 37.3257C106.277 36.5842 106.455 35.799 106.465 34.9702C106.465 34.9456 106.465 34.9208 106.465 34.8961C106.465 34.7652 106.46 34.643 106.45 34.5294C106.446 34.4771 106.44 34.4267 106.434 34.3781C106.397 34.1131 106.33 33.9024 106.232 33.746C106.077 33.4987 105.831 33.375 105.495 33.375C105.391 33.375 105.288 33.3854 105.184 33.4062C104.564 33.5307 103.938 34.0273 103.305 34.8961C103.142 35.1189 102.98 35.3662 102.816 35.638C102.797 35.6714 102.777 35.7049 102.757 35.7386C102.743 35.7642 102.728 35.7899 102.713 35.8157C102.709 35.8232 102.704 35.8308 102.7 35.8384C102.61 35.9963 102.523 36.1575 102.438 36.3221C102.345 36.5018 102.255 36.6855 102.168 36.8732C102.167 36.8746 102.166 36.8761 102.166 36.8775C102.113 36.9911 102.062 37.1062 102.011 37.2227C101.882 37.5197 101.76 37.8262 101.645 38.1422ZM111.433 47.4156C111.749 47.5276 112.128 47.5836 112.568 47.5836C112.598 47.5836 112.628 47.5833 112.657 47.5829C113.079 47.5761 113.464 47.5212 113.81 47.4182C114.16 47.3141 114.471 47.161 114.744 46.9587C114.775 46.9357 114.806 46.9119 114.836 46.8876C114.911 46.8268 114.983 46.762 115.052 46.6932C115.281 46.4653 115.465 46.199 115.606 45.8944C115.625 45.8534 115.643 45.8117 115.661 45.7694C115.662 45.7667 115.663 45.764 115.664 45.7614C115.714 45.6381 115.757 45.509 115.794 45.374C115.882 45.05 115.932 44.6923 115.943 44.3008C115.944 44.2457 115.945 44.1899 115.945 44.1335C115.945 43.9727 115.942 43.8119 115.936 43.6512C115.93 43.4657 115.92 43.2802 115.906 43.0947C115.884 42.7849 115.845 42.3112 115.787 41.6736C115.776 41.5477 115.764 41.4155 115.751 41.2769C115.739 41.1718 115.728 41.0679 115.716 40.965C115.649 40.3534 115.59 39.7811 115.538 39.2481C115.536 39.2318 115.534 39.2156 115.533 39.1994C115.532 39.1872 115.531 39.175 115.529 39.1628C115.529 39.156 115.528 39.1492 115.527 39.1424C115.511 38.9759 115.496 38.8132 115.481 38.6544C115.481 38.6467 115.48 38.6389 115.479 38.6311C115.465 38.4833 115.453 38.3388 115.44 38.1978C115.363 37.3074 115.285 36.3552 115.207 35.3412C114.915 36.223 114.564 37.1422 114.154 38.0987C114.152 38.1021 114.151 38.1055 114.149 38.1089C114.121 38.1749 114.092 38.2411 114.064 38.3074C114.061 38.3143 114.058 38.3212 114.055 38.3281C114.025 38.3958 113.995 38.4636 113.965 38.5317C113.873 38.747 113.774 38.9696 113.669 39.1994C113.342 39.9133 112.951 40.6973 112.497 41.5513C112.486 41.5712 112.476 41.5911 112.465 41.611C112.336 41.8527 112.202 42.0999 112.063 42.3528C112.13 42.3819 112.194 42.4137 112.254 42.4483C112.272 42.459 112.29 42.47 112.308 42.4812C112.477 42.5879 112.616 42.7182 112.723 42.8721C112.792 42.9706 112.845 43.0763 112.884 43.1893C112.894 43.2208 112.904 43.2529 112.912 43.2855C112.913 43.2899 112.914 43.2944 112.916 43.2989C112.917 43.3065 112.919 43.3142 112.921 43.3219C112.944 43.4261 112.956 43.5358 112.956 43.6512C112.956 43.6574 112.956 43.6636 112.956 43.6698C112.956 43.7073 112.954 43.7445 112.952 43.7814C112.944 43.9022 112.924 44.0195 112.892 44.1335C112.863 44.2394 112.824 44.3424 112.775 44.4425C112.757 44.4798 112.737 44.5168 112.716 44.5533C112.672 44.6284 112.623 44.7018 112.568 44.7734C112.532 44.8205 112.493 44.8669 112.452 44.9125C112.428 44.9381 112.405 44.9629 112.381 44.9867C112.27 45.0973 112.153 45.1888 112.029 45.2613C111.951 45.3072 111.87 45.3455 111.786 45.3762C111.771 45.3819 111.755 45.3873 111.74 45.3924C111.731 45.3954 111.722 45.3984 111.712 45.4012C111.622 45.4289 111.529 45.4481 111.433 45.4589C111.373 45.4656 111.311 45.469 111.248 45.469C111.008 45.469 110.801 45.4369 110.627 45.3728C110.614 45.3679 110.601 45.3629 110.588 45.3577C110.498 45.3081 110.42 45.2523 110.355 45.1902C110.307 45.2525 110.26 45.3142 110.212 45.3753C110.221 45.512 110.234 45.6421 110.252 45.7658C110.258 45.8068 110.265 45.8472 110.272 45.8868C110.28 45.9284 110.288 45.9693 110.296 46.0093C110.299 46.0229 110.302 46.0363 110.305 46.0497C110.394 46.4409 110.541 46.7543 110.744 46.99C110.883 47.1324 111.052 47.2492 111.248 47.3404C111.281 47.3554 111.314 47.3697 111.348 47.3833C111.369 47.392 111.392 47.4005 111.414 47.4087C111.42 47.411 111.427 47.4133 111.433 47.4156Z" fill="white"/>
<path d="M64.4363 19.8714C64.4363 22.7398 62.0034 25.0651 59.0023 25.0651C56.0011 25.0651 53.5682 22.7398 53.5682 19.8714C53.5682 17.003 56.0011 14.6776 59.0023 14.6776C62.0034 14.6776 64.4363 17.003 64.4363 19.8714Z" fill="white"/>
<path d="M68.7059 14.6776C68.7059 17.5461 66.273 19.8714 63.2719 19.8714C60.2707 19.8714 57.8378 17.5461 57.8378 14.6776C57.8378 11.8092 60.2707 9.48392 63.2719 9.48392C66.273 9.48392 68.7059 11.8092 68.7059 14.6776Z" fill="white"/>
<path d="M87.725 17.6455C87.725 20.5139 85.2921 22.8392 82.2909 22.8392C79.2898 22.8392 76.8569 20.5139 76.8569 17.6455C76.8569 14.7771 79.2898 12.4518 82.2909 12.4518C85.2921 12.4518 87.725 14.7771 87.725 17.6455Z" fill="white"/>
<path d="M81.5146 14.8631C81.5146 18.6535 78.2998 21.7263 74.334 21.7263C70.3682 21.7263 67.1533 18.6535 67.1533 14.8631C67.1533 11.0727 70.3682 8 74.334 8C78.2998 8 81.5146 11.0727 81.5146 14.8631Z" fill="white"/>
<path d="M61.7193 17.6455H80.3502C80.3502 17.6455 83.4554 20.2423 81.7087 24.1376C79.9621 28.0329 83.0672 30.6298 83.0672 30.6298L64.8244 31.9282C64.8244 31.9282 65.2126 26.6418 63.2719 24.7869C61.3311 22.932 61.7193 17.6455 61.7193 17.6455Z" fill="white"/>
<path d="M87.4153 61.8312C72.3818 61.4563 54.8429 65.1114 47.9525 66.9858C46.4021 65.464 53.5901 60.4253 69.1604 58.7852C84.7307 57.1451 96.4815 57.7245 106.744 54.0015C107.132 56.0419 106.207 62.2998 87.4153 61.8312Z" fill="#FA1E1E"/>
<path fill-rule="evenodd" clip-rule="evenodd" d="M46.4767 72L44.4535 70.0141C42.9577 68.5459 42.7166 66.675 43.1264 65.1801C43.4761 63.9046 44.257 62.9426 44.8637 62.3247C46.1216 61.0436 47.9434 59.927 49.9696 58.9823C54.1369 57.0394 60.4027 55.255 68.6155 54.3899C73.4704 53.8785 78.1777 53.5645 82.4326 53.2806C84.9713 53.1113 87.3489 52.9527 89.5008 52.7693C95.5377 52.2548 100.497 51.5133 104.986 49.885L110.457 47.9004L111.472 53.2376C111.921 55.5998 111.375 59.4591 107.164 62.3884C103.328 65.0565 97.056 66.4971 87.2856 66.2535C72.9629 65.8963 55.9692 69.4177 49.3115 71.2288L46.4767 72ZM100.757 55.6939C96.5346 56.5963 92.0231 57.0384 87.0875 57.3986C85.6172 57.5059 84.1093 57.606 82.5603 57.7088C78.4121 57.984 73.9684 58.2788 69.1605 58.7852C55.2841 60.2469 48.0654 64.4079 47.7564 66.3732C47.7187 66.6131 47.784 66.8203 47.9526 66.9859C49.1601 66.6574 50.6945 66.2742 52.4851 65.8677C56.9738 64.8485 63.0724 63.6823 69.666 62.8614C75.3918 62.1486 81.4908 61.6962 87.233 61.8268C87.2939 61.8282 87.3546 61.8297 87.4154 61.8312C94.9125 62.0181 99.5659 61.1344 102.427 59.8751C106.736 57.9778 106.977 55.2279 106.744 54.0015C104.807 54.7044 102.816 55.2539 100.757 55.6939ZM102.012 54.6322C102.014 54.6327 102.014 54.6465 102.006 54.6724C102.006 54.6448 102.01 54.6318 102.012 54.6322ZM51.9817 68.2616C51.9837 68.2596 51.9858 68.2574 51.988 68.2552C51.9635 68.2836 51.958 68.2857 51.9817 68.2616Z" fill="white"/>
<path d="M21.6627 50.2918H16.0734L21.3522 26.6974L27.0967 25.9554L25.1948 34.5251H25.5053C26.9803 34.5251 28.2611 33.845 29.3479 32.4847C30.4606 31.1244 31.017 29.6529 31.017 28.07C31.017 26.8582 30.6418 25.906 29.8913 25.2135C29.1409 24.521 28.0929 24.1747 26.7474 24.1747C23.5387 24.1747 20.9899 24.9909 19.1009 26.6232C17.2119 28.2308 16.2675 30.4196 16.2675 33.1896C16.2675 33.6595 16.2933 34.0675 16.3451 34.4138C16.4227 34.76 16.5392 35.0939 16.6944 35.4154C16.7462 35.5144 16.772 35.5886 16.772 35.638C16.7979 35.6628 16.8109 35.6875 16.8109 35.7122C15.3618 35.7122 14.3009 35.4278 13.6281 34.859C12.9812 34.2654 12.6577 33.3503 12.6577 32.1137C12.6577 30.8771 13.0847 29.6405 13.9386 28.4039C14.8184 27.1673 16.0346 26.0544 17.5872 25.0651C18.9068 24.2489 20.3171 23.6183 21.8179 23.1731C23.3446 22.7032 24.8325 22.4682 26.2816 22.4682C28.9986 22.4682 31.1463 23.0123 32.7248 24.1005C34.3032 25.1888 35.0925 26.6232 35.0925 28.4039C35.0925 29.5911 34.7043 30.7658 33.928 31.9282C33.1776 33.0906 32.1685 34.0305 30.9005 34.7477C31.8062 34.995 32.479 35.4278 32.9189 36.0461C33.3588 36.6397 33.5787 37.4435 33.5787 38.4575C33.5787 39.0263 33.514 39.6817 33.3846 40.4237C33.2553 41.1409 32.9706 42.2415 32.5307 43.7254C32.1685 44.9867 31.9356 45.8895 31.8321 46.4336C31.7286 46.9777 31.6768 47.4476 31.6768 47.8433C31.6768 48.4121 31.8062 48.9191 32.0649 49.3643C32.3496 49.8095 32.7248 50.1186 33.1906 50.2918C32.4402 50.4896 31.7286 50.638 31.0558 50.7369C30.4089 50.8606 29.8396 50.9224 29.3479 50.9224C28.3388 50.9224 27.5754 50.7122 27.0579 50.2918C26.5662 49.896 26.3204 49.2777 26.3204 48.4369C26.3204 48.0164 26.3851 47.5094 26.5145 46.9158C26.6439 46.2975 26.9026 45.2835 27.2908 43.8738C27.7307 42.3404 28.0153 41.2275 28.1447 40.535C28.2999 39.8177 28.3776 39.1994 28.3776 38.6801C28.3776 37.8392 28.1835 37.2085 27.7954 36.7881C27.4072 36.3676 26.825 36.1574 26.0487 36.1574C25.9452 36.1574 25.8288 36.1698 25.6994 36.1945C25.5959 36.1945 25.2854 36.2316 24.7678 36.3058L21.6627 50.2918Z" fill="#FA1E1E"/>
<path d="M49.9812 34.9703C49.9812 37.023 49.1014 38.8161 47.3418 40.3495C45.5822 41.8581 43.4862 42.6743 41.0538 42.798C41.028 43.2184 41.0021 43.5399 40.9762 43.7625C40.9762 43.9604 40.9762 44.1335 40.9762 44.2819C40.9762 45.4195 41.1703 46.2233 41.5584 46.6932C41.9724 47.1632 42.7099 47.3981 43.7708 47.3981C44.987 47.3981 46.0997 47.1384 47.1089 46.619C48.1439 46.0749 49.3213 45.0857 50.641 43.6512H51.9607C50.4599 45.976 48.8297 47.7073 47.0701 48.8449C45.3105 49.9579 43.3827 50.5143 41.2867 50.5143C39.2942 50.5143 37.7805 50.0197 36.7454 49.0304C35.7362 48.0411 35.2317 46.5696 35.2317 44.6158C35.2317 43.206 35.4645 41.7097 35.9303 40.1269C36.3961 38.544 37.0171 37.1343 37.7934 35.8977C38.7508 34.4138 39.8894 33.3009 41.2091 32.5589C42.5547 31.7922 44.0555 31.4089 45.7116 31.4089C47.1348 31.4089 48.1957 31.7056 48.8944 32.2992C49.6189 32.868 49.9812 33.7584 49.9812 34.9703ZM46.0221 33.3751C45.1423 33.3751 44.2496 34.1294 43.3439 35.638C42.4641 37.122 41.8042 38.915 41.3643 41.0172C42.8652 40.9183 44.1719 40.2629 45.2846 39.0511C46.4232 37.8144 46.9924 36.4295 46.9924 34.8961C46.9924 34.3767 46.9148 33.9934 46.7596 33.746C46.6043 33.4987 46.3585 33.3751 46.0221 33.3751Z" fill="#FA1E1E"/>
<path d="M65.56 34.8219C65.56 35.6628 65.3659 36.3305 64.9778 36.8252C64.6155 37.2951 64.1239 37.53 63.5028 37.53C63.2958 37.53 63.0759 37.4929 62.843 37.4187C62.6101 37.3445 62.3772 37.2332 62.1443 37.0849C62.2996 36.6891 62.416 36.3058 62.4937 35.9348C62.5713 35.5638 62.6101 35.2176 62.6101 34.8961C62.6101 34.4014 62.5195 34.0305 62.3384 33.7831C62.1573 33.5111 61.8856 33.3751 61.5233 33.3751C60.3847 33.3751 59.2721 34.6364 58.1853 37.1591C57.0985 39.657 56.5551 42.0313 56.5551 44.2819C56.5551 45.4195 56.7491 46.2233 57.1373 46.6932C57.5513 47.1632 58.2888 47.3981 59.3497 47.3981C60.5659 47.3981 61.6786 47.1384 62.6877 46.619C63.7228 46.0749 64.9002 45.0857 66.2199 43.6512H67.5395C66.0387 45.976 64.4085 47.7073 62.6489 48.8449C60.8893 49.9579 58.9616 50.5143 56.8656 50.5143C54.8731 50.5143 53.3593 50.0197 52.3243 49.0304C51.3151 48.0411 50.8105 46.5696 50.8105 44.6158C50.8105 43.206 51.0305 41.7097 51.4704 40.1269C51.9361 38.544 52.5701 37.1343 53.3723 35.8977C54.3297 34.4138 55.4682 33.3009 56.7879 32.5589C58.1335 31.7922 59.6214 31.4089 61.2516 31.4089C62.6748 31.4089 63.7487 31.7056 64.4732 32.2992C65.1977 32.868 65.56 33.7089 65.56 34.8219Z" fill="#FA1E1E"/>
<path d="M75.7988 26.8087C75.7988 27.6249 75.4883 28.3174 74.8673 28.8862C74.2721 29.455 73.5476 29.7394 72.6937 29.7394C71.8398 29.7394 71.1152 29.455 70.5201 28.8862C69.9249 28.3174 69.6273 27.6249 69.6273 26.8087C69.6273 25.9925 69.9249 25.3 70.5201 24.7312C71.1152 24.1376 71.8398 23.8409 72.6937 23.8409C73.5476 23.8409 74.2721 24.1376 74.8673 24.7312C75.4883 25.3 75.7988 25.9925 75.7988 26.8087ZM65.9012 46.0626C65.9012 45.7411 65.927 45.3824 65.9788 44.9867C66.0305 44.5663 66.1082 44.1211 66.2117 43.6512L68.8511 31.7427H74.4403L71.6457 44.3561C71.5939 44.5787 71.5551 44.7889 71.5293 44.9867C71.5034 45.1599 71.4904 45.3453 71.4904 45.5432C71.4904 46.0378 71.6069 46.3965 71.8398 46.619C72.0985 46.8169 72.5126 46.9158 73.0818 46.9158C73.8064 46.9158 74.4921 46.619 75.139 46.0255C75.7859 45.4072 76.2646 44.6158 76.5751 43.6512H78.2053C77.3773 45.9018 76.2646 47.6083 74.8673 48.7707C73.47 49.9331 71.8656 50.5143 70.0543 50.5143C68.7605 50.5143 67.7384 50.131 66.988 49.3643C66.2634 48.5729 65.9012 47.4723 65.9012 46.0626Z" fill="#FA1E1E"/>
<path d="M81.5279 46.4336C81.6314 46.7056 81.8126 46.9158 82.0713 47.0642C82.3301 47.2126 82.6406 47.2868 83.0029 47.2868C84.6331 47.2868 85.9398 46.2852 86.9231 44.2819C87.9323 42.2786 88.4369 39.9538 88.4369 37.3074C88.4369 36.2934 88.2816 35.5267 87.9711 35.0074C87.6606 34.488 87.169 34.2283 86.4962 34.2283C86.0304 34.2283 85.5517 34.4014 85.06 34.7477C84.5684 35.0692 84.1544 35.502 83.818 36.0461L81.5279 46.4336ZM78.8885 58.2307L73.0276 59.5663L79.5096 30.3701H85.0988L84.4778 33.1525C85.1247 32.6331 85.8234 32.2374 86.5738 31.9653C87.3242 31.6933 88.1393 31.5572 89.0191 31.5572C90.5717 31.5572 91.7491 32.0519 92.5512 33.0412C93.3534 34.0305 93.7545 35.4896 93.7545 37.4187C93.7545 41.2027 92.9006 44.3313 91.1927 46.8045C89.5108 49.2777 87.1819 50.5143 84.2061 50.5143C83.3781 50.5143 82.6794 50.403 82.1101 50.1805C81.5667 49.9579 81.1657 49.624 80.9069 49.1788L78.8885 58.2307Z" fill="#FA1E1E"/>
<path d="M109.454 34.9703C109.454 37.023 108.574 38.8161 106.814 40.3495C105.055 41.8581 102.959 42.6743 100.526 42.798C100.501 43.2184 100.475 43.5399 100.449 43.7625C100.449 43.9604 100.449 44.1335 100.449 44.2819C100.449 45.4195 100.643 46.2233 101.031 46.6932C101.445 47.1632 102.182 47.3981 103.243 47.3981C104.46 47.3981 105.572 47.1384 106.581 46.619C107.616 46.0749 108.794 45.0857 110.114 43.6512H111.433C109.932 45.976 108.302 47.7073 106.543 48.8449C104.783 49.9579 102.855 50.5143 100.759 50.5143C98.7668 50.5143 97.253 50.0197 96.218 49.0304C95.2088 48.0411 94.7042 46.5696 94.7042 44.6158C94.7042 43.206 94.9371 41.7097 95.4029 40.1269C95.8686 38.544 96.4897 37.1343 97.266 35.8977C98.2234 34.4138 99.362 33.3009 100.682 32.5589C102.027 31.7922 103.528 31.4089 105.184 31.4089C106.607 31.4089 107.668 31.7056 108.367 32.2992C109.091 32.868 109.454 33.7584 109.454 34.9703ZM105.495 33.3751C104.615 33.3751 103.722 34.1294 102.816 35.638C101.937 37.122 101.277 38.915 100.837 41.0172C102.338 40.9183 103.644 40.2629 104.757 39.0511C105.896 37.8144 106.465 36.4295 106.465 34.8961C106.465 34.3767 106.387 33.9934 106.232 33.746C106.077 33.4987 105.831 33.3751 105.495 33.3751Z" fill="#FA1E1E"/>
<path d="M121.573 44.0964C121.573 44.3932 121.56 44.6529 121.534 44.8754C121.508 45.098 121.469 45.3083 121.418 45.5061C121.935 45.2093 122.44 44.9002 122.931 44.5787C123.423 44.2571 123.85 43.948 124.212 43.6512H125.843C125.04 44.5416 124.148 45.3701 123.164 46.1368C122.207 46.8787 121.12 47.596 119.904 48.2885C119.205 49.0057 118.313 49.5622 117.226 49.9579C116.139 50.3289 115 50.5143 113.81 50.5143C112.076 50.5143 110.692 50.0692 109.657 49.1788C108.648 48.2637 108.143 47.1261 108.143 45.7658C108.143 44.9991 108.337 44.3066 108.725 43.6883C109.113 43.0453 109.605 42.5877 110.2 42.3157C111.08 40.807 111.895 39.1994 112.646 37.4929C113.422 35.7617 114.198 33.7089 114.974 31.3347L120.719 30.5927C120.797 32.4476 120.887 34.1417 120.991 35.6751C121.094 37.2085 121.224 38.8779 121.379 40.6834C121.456 41.7221 121.508 42.4517 121.534 42.8721C121.56 43.2926 121.573 43.7007 121.573 44.0964ZM115.207 35.3412C114.871 36.3553 114.457 37.4187 113.965 38.5317C113.5 39.6199 112.866 40.8936 112.063 42.3528C112.348 42.4764 112.568 42.6496 112.723 42.8721C112.878 43.0947 112.956 43.3544 112.956 43.6512C112.956 44.1211 112.788 44.5416 112.452 44.9125C112.115 45.2835 111.714 45.469 111.248 45.469C110.99 45.469 110.77 45.4319 110.588 45.3577C110.407 45.2588 110.278 45.1351 110.2 44.9867C110.2 45.9018 110.381 46.5696 110.744 46.99C111.132 47.3857 111.74 47.5836 112.568 47.5836C113.629 47.5836 114.457 47.2868 115.052 46.6932C115.647 46.0997 115.945 45.2464 115.945 44.1335C115.945 43.7872 115.932 43.441 115.906 43.0947C115.88 42.7238 115.828 42.1178 115.751 41.2769C115.621 40.1145 115.518 39.0881 115.44 38.1978C115.363 37.3074 115.285 36.3553 115.207 35.3412Z" fill="#FA1E1E"/>
</svg>
